HIERARCHY
ROOT mixamorig:Hips
{
	OFFSET -0.000008 104.274872 1.554316
	CHANNELS 6 Xposition Yposition Zposition Xrotation Yrotation Zrotation
	JOINT mixamorig:Spine
	{
		OFFSET -0.000005 10.181595 0.131519
		CHANNELS 6 Xposition Yposition Zposition Xrotation Yrotation Zrotation
		JOINT mixamorig:Spine1
		{
			OFFSET -0.000000 9.893959 -1.470707
			CHANNELS 6 Xposition Yposition Zposition Xrotation Yrotation Zrotation
			JOINT mixamorig:Spine2
			{
				OFFSET -0.000000 9.220757 -1.370641
				CHANNELS 6 Xposition Yposition Zposition Xrotation Yrotation Zrotation
				JOINT mixamorig:Neck
				{
					OFFSET 0.000001 16.740417 -2.049036
					CHANNELS 6 Xposition Yposition Zposition Xrotation Yrotation Zrotation
					JOINT mixamorig:Head
					{
						OFFSET 0.000000 9.617874 1.685006
						CHANNELS 6 Xposition Yposition Zposition Xrotation Yrotation Zrotation
						JOINT mixamorig:HeadTop_End
						{
							OFFSET 0.000002 22.037354 7.501101
							CHANNELS 6 Xposition Yposition Zposition Xrotation Yrotation Zrotation
							End Site
							{
								OFFSET 0.000168 2310.654297 -282.823242
							}
						}
					}
				}
				JOINT mixamorig:RightShoulder
				{
					OFFSET -4.569970 11.014908 -2.160885
					CHANNELS 6 Xposition Yposition Zposition Xrotation Yrotation Zrotation
					JOINT mixamorig:RightArm
					{
						OFFSET -10.592851 -0.524811 -2.232101
						CHANNELS 6 Xposition Yposition Zposition Xrotation Yrotation Zrotation
						JOINT mixamorig:RightForeArm
						{
							OFFSET -27.841511 0.000031 -0.000004
							CHANNELS 6 Xposition Yposition Zposition Xrotation Yrotation Zrotation
							JOINT mixamorig:RightHand
							{
								OFFSET -28.328831 -0.000015 0.000015
								CHANNELS 6 Xposition Yposition Zposition Xrotation Yrotation Zrotation
								JOINT mixamorig:RightHandThumb1
								{
									OFFSET -2.464806 -1.573990 2.681852
									CHANNELS 6 Xposition Yposition Zposition Xrotation Yrotation Zrotation
									JOINT mixamorig:RightHandThumb2
									{
										OFFSET -3.215179 -1.872803 1.924282
										CHANNELS 6 Xposition Yposition Zposition Xrotation Yrotation Zrotation
										JOINT mixamorig:RightHandThumb3
										{
											OFFSET -2.654831 -1.527969 1.512609
											CHANNELS 6 Xposition Yposition Zposition Xrotation Yrotation Zrotation
											JOINT mixamorig:RightHandThumb4
											{
												OFFSET -2.018814 -1.152008 1.108052
												CHANNELS 6 Xposition Yposition Zposition Xrotation Yrotation Zrotation
												End Site
												{
													OFFSET -188.809540 -114.533607 132.431396
												}
											}
										}
									}
								}
								JOINT mixamorig:RightHandIndex1
								{
									OFFSET -9.108284 -0.517868 2.259835
									CHANNELS 6 Xposition Yposition Zposition Xrotation Yrotation Zrotation
									JOINT mixamorig:RightHandIndex2
									{
										OFFSET -3.699989 0.000000 0.001215
										CHANNELS 6 Xposition Yposition Zposition Xrotation Yrotation Zrotation
										JOINT mixamorig:RightHandIndex3
										{
											OFFSET -2.850006 0.000031 -0.000522
											CHANNELS 6 Xposition Yposition Zposition Xrotation Yrotation Zrotation
											JOINT mixamorig:RightHandIndex4
											{
												OFFSET -2.772186 -0.000015 -0.000020
												CHANNELS 6 Xposition Yposition Zposition Xrotation Yrotation Zrotation
												End Site
												{
													OFFSET -277.218445 0.000000 -0.050231
												}
											}
										}
									}
								}
								JOINT mixamorig:RightHandMiddle1
								{
									OFFSET -9.532516 -0.000031 -0.000023
									CHANNELS 6 Xposition Yposition Zposition Xrotation Yrotation Zrotation
									JOINT mixamorig:RightHandMiddle2
									{
										OFFSET -3.700005 -0.000015 0.003713
										CHANNELS 6 Xposition Yposition Zposition Xrotation Yrotation Zrotation
										JOINT mixamorig:RightHandMiddle3
										{
											OFFSET -2.949974 0.000015 -0.002054
											CHANNELS 6 Xposition Yposition Zposition Xrotation Yrotation Zrotation
											JOINT mixamorig:RightHandMiddle4
											{
												OFFSET -2.946640 0.000000 -0.000156
												CHANNELS 6 Xposition Yposition Zposition Xrotation Yrotation Zrotation
												End Site
												{
													OFFSET -294.664337 0.000000 -0.113670
												}
											}
										}
									}
								}
								JOINT mixamorig:RightHandRing1
								{
									OFFSET -9.103600 -0.043076 -1.865134
									CHANNELS 6 Xposition Yposition Zposition Xrotation Yrotation Zrotation
									JOINT mixamorig:RightHandRing2
									{
										OFFSET -3.379288 0.000000 -0.001055
										CHANNELS 6 Xposition Yposition Zposition Xrotation Yrotation Zrotation
										JOINT mixamorig:RightHandRing3
										{
											OFFSET -2.889687 -0.000015 0.000379
											CHANNELS 6 Xposition Yposition Zposition Xrotation Yrotation Zrotation
											JOINT mixamorig:RightHandRing4
											{
												OFFSET -2.638809 -0.000015 0.000941
												CHANNELS 6 Xposition Yposition Zposition Xrotation Yrotation Zrotation
												End Site
												{
													OFFSET -263.880371 0.000000 0.516020
												}
											}
										}
									}
								}
								JOINT mixamorig:RightHandPinky1
								{
									OFFSET -8.076683 -0.486710 -3.806280
									CHANNELS 6 Xposition Yposition Zposition Xrotation Yrotation Zrotation
									JOINT mixamorig:RightHandPinky2
									{
										OFFSET -3.600014 -0.000015 -0.003747
										CHANNELS 6 Xposition Yposition Zposition Xrotation Yrotation Zrotation
										JOINT mixamorig:RightHandPinky3
										{
											OFFSET -2.099983 0.000000 -0.005739
											CHANNELS 6 Xposition Yposition Zposition Xrotation Yrotation Zrotation
											JOINT mixamorig:RightHandPinky4
											{
												OFFSET -2.115768 -0.000031 -0.003680
												CHANNELS 6 Xposition Yposition Zposition Xrotation Yrotation Zrotation
												End Site
												{
													OFFSET -211.577087 0.000000 -0.350686
												}
											}
										}
									}
								}
							}
						}
					}
				}
				JOINT mixamorig:LeftShoulder
				{
					OFFSET 4.570447 11.014725 -2.160855
					CHANNELS 6 Xposition Yposition Zposition Xrotation Yrotation Zrotation
					JOINT mixamorig:LeftArm
					{
						OFFSET 10.592371 -0.524597 -2.232119
						CHANNELS 6 Xposition Yposition Zposition Xrotation Yrotation Zrotation
						JOINT mixamorig:LeftForeArm
						{
							OFFSET 27.841532 -0.000031 0.000026
							CHANNELS 6 Xposition Yposition Zposition Xrotation Yrotation Zrotation
							JOINT mixamorig:LeftHand
							{
								OFFSET 28.328846 -0.000061 0.000022
								CHANNELS 6 Xposition Yposition Zposition Xrotation Yrotation Zrotation
								JOINT mixamorig:LeftHandThumb1
								{
									OFFSET 2.466141 -1.576172 2.681732
									CHANNELS 6 Xposition Yposition Zposition Xrotation Yrotation Zrotation
									JOINT mixamorig:LeftHandThumb2
									{
										OFFSET 3.217812 -1.872070 1.916482
										CHANNELS 6 Xposition Yposition Zposition Xrotation Yrotation Zrotation
										JOINT mixamorig:LeftHandThumb3
										{
											OFFSET 2.656029 -1.528778 1.514513
											CHANNELS 6 Xposition Yposition Zposition Xrotation Yrotation Zrotation
											JOINT mixamorig:LeftHandThumb4
											{
												OFFSET 2.020889 -1.154053 1.115139
												CHANNELS 6 Xposition Yposition Zposition Xrotation Yrotation Zrotation
												End Site
												{
													OFFSET 190.885437 -115.081749 130.048782
												}
											}
										}
									}
								}
								JOINT mixamorig:LeftHandIndex1
								{
									OFFSET 9.109314 -0.518021 2.259871
									CHANNELS 6 Xposition Yposition Zposition Xrotation Yrotation Zrotation
									JOINT mixamorig:LeftHandIndex2
									{
										OFFSET 3.699989 0.000000 -0.000322
										CHANNELS 6 Xposition Yposition Zposition Xrotation Yrotation Zrotation
										JOINT mixamorig:LeftHandIndex3
										{
											OFFSET 2.850006 0.000000 0.000352
											CHANNELS 6 Xposition Yposition Zposition Xrotation Yrotation Zrotation
											JOINT mixamorig:LeftHandIndex4
											{
												OFFSET 2.774864 -0.000031 -0.000027
												CHANNELS 6 Xposition Yposition Zposition Xrotation Yrotation Zrotation
												End Site
												{
													OFFSET 277.486267 0.000000 -0.009857
												}
											}
										}
									}
								}
								JOINT mixamorig:LeftHandMiddle1
								{
									OFFSET 9.533394 0.000061 0.000044
									CHANNELS 6 Xposition Yposition Zposition Xrotation Yrotation Zrotation
									JOINT mixamorig:LeftHandMiddle2
									{
										OFFSET 3.699989 -0.000015 -0.000231
										CHANNELS 6 Xposition Yposition Zposition Xrotation Yrotation Zrotation
										JOINT mixamorig:LeftHandMiddle3
										{
											OFFSET 2.949997 -0.000015 -0.000059
											CHANNELS 6 Xposition Yposition Zposition Xrotation Yrotation Zrotation
											JOINT mixamorig:LeftHandMiddle4
											{
												OFFSET 2.952896 0.000031 0.000063
												CHANNELS 6 Xposition Yposition Zposition Xrotation Yrotation Zrotation
												End Site
												{
													OFFSET 295.289337 0.000000 0.022810
												}
											}
										}
									}
								}
								JOINT mixamorig:LeftHandRing1
								{
									OFFSET 9.104523 -0.042999 -1.865074
									CHANNELS 6 Xposition Yposition Zposition Xrotation Yrotation Zrotation
									JOINT mixamorig:LeftHandRing2
									{
										OFFSET 3.150009 -0.000031 0.000043
										CHANNELS 6 Xposition Yposition Zposition Xrotation Yrotation Zrotation
										JOINT mixamorig:LeftHandRing3
										{
											OFFSET 2.949982 -0.000015 0.000040
											CHANNELS 6 Xposition Yposition Zposition Xrotation Yrotation Zrotation
											JOINT mixamorig:LeftHandRing4
											{
												OFFSET 2.644348 0.000000 0.000057
												CHANNELS 6 Xposition Yposition Zposition Xrotation Yrotation Zrotation
												End Site
												{
													OFFSET 264.434631 0.000000 0.012105
												}
											}
										}
									}
								}
								JOINT mixamorig:LeftHandPinky1
								{
									OFFSET 8.077789 -0.486847 -3.806259
									CHANNELS 6 Xposition Yposition Zposition Xrotation Yrotation Zrotation
									JOINT mixamorig:LeftHandPinky2
									{
										OFFSET 3.599953 0.000031 0.014727
										CHANNELS 6 Xposition Yposition Zposition Xrotation Yrotation Zrotation
										JOINT mixamorig:LeftHandPinky3
										{
											OFFSET 2.100021 0.000015 0.007705
											CHANNELS 6 Xposition Yposition Zposition Xrotation Yrotation Zrotation
											JOINT mixamorig:LeftHandPinky4
											{
												OFFSET 2.125504 0.000031 0.007517
												CHANNELS 6 Xposition Yposition Zposition Xrotation Yrotation Zrotation
												End Site
												{
													OFFSET 212.550781 0.000000 0.625752
												}
											}
										}
									}
								}
							}
						}
					}
				}
			}
		}
	}
	JOINT mixamorig:RightUpLeg
	{
		OFFSET -8.207787 -6.751648 -1.599560
		CHANNELS 6 Xposition Yposition Zposition Xrotation Yrotation Zrotation
		JOINT mixamorig:RightLeg
		{
			OFFSET -0.000002 -44.370117 0.345942
			CHANNELS 6 Xposition Yposition Zposition Xrotation Yrotation Zrotation
			JOINT mixamorig:RightFoot
			{
				OFFSET 0.000003 -44.423679 -3.043532
				CHANNELS 6 Xposition Yposition Zposition Xrotation Yrotation Zrotation
				JOINT mixamorig:RightToeBase
				{
					OFFSET -0.000002 -8.728671 10.710558
					CHANNELS 6 Xposition Yposition Zposition Xrotation Yrotation Zrotation
					JOINT mixamorig:RightToe_End
					{
						OFFSET -0.000001 -0.000679 9.278119
						CHANNELS 6 Xposition Yposition Zposition Xrotation Yrotation Zrotation
						End Site
						{
							OFFSET 0.000000 -0.067690 927.812134
						}
					}
				}
			}
		}
	}
	JOINT mixamorig:LeftUpLeg
	{
		OFFSET 8.207793 -6.751686 -1.599556
		CHANNELS 6 Xposition Yposition Zposition Xrotation Yrotation Zrotation
		JOINT mixamorig:LeftLeg
		{
			OFFSET -0.000004 -44.370014 0.346954
			CHANNELS 6 Xposition Yposition Zposition Xrotation Yrotation Zrotation
			JOINT mixamorig:LeftFoot
			{
				OFFSET -0.000001 -44.423672 -3.044401
				CHANNELS 6 Xposition Yposition Zposition Xrotation Yrotation Zrotation
				JOINT mixamorig:LeftToeBase
				{
					OFFSET -0.000002 -8.728669 10.710558
					CHANNELS 6 Xposition Yposition Zposition Xrotation Yrotation Zrotation
					JOINT mixamorig:LeftToe_End
					{
						OFFSET -0.000003 -0.000679 9.278133
						CHANNELS 6 Xposition Yposition Zposition Xrotation Yrotation Zrotation
						End Site
						{
							OFFSET 0.000000 -0.068021 927.813477
						}
					}
				}
			}
		}
	}
}
MOTION
Frames: 3
Frame Time: 0.033333
0.000006 104.270477 1.554256 0.000010 0.000003 -0.000113 -0.000005 10.181587 0.131522 0.000001 -0.000003 0.000084 -0.000000 9.893967 -1.470711 0.000001 0.000000 -0.000000 -0.000000 9.220802 -1.370642 0.000000 -0.000000 -0.000000 0.000001 16.740433 -2.049030 0.000000 -0.000000 -0.000000 0.000000 9.617859 1.685014 0.000000 0.000000 0.000000 0.000002 22.037384 7.501101 0.000000 -0.000000 0.000000 -4.569968 11.014880 -2.160881 0.000008 0.000001 -0.000038 -10.592867 -0.524778 -2.231894 78.016019 31.533740 -25.764623 -27.841543 0.000028 0.000557 -55.153491 107.851276 71.272300 -28.328808 0.000022 0.000024 -0.000317 -0.000042 0.000004 -2.464421 -1.573770 2.682323 -48.219080 -166.409117 -10.652305 -3.215269 -1.872575 1.924655 153.498051 31.699485 5.335545 -2.654959 -1.527890 1.513071 144.942638 27.300987 -37.522563 -2.018842 -1.152001 1.108056 -0.000002 -0.000001 0.000002 -9.108377 -0.517562 2.260155 106.763425 16.383824 -21.988508 -3.700073 0.000318 0.001538 100.476092 13.880039 -16.617451 -2.850076 0.000368 -0.000247 97.691390 11.590733 -13.246321 -2.772168 -0.000000 -0.000021 -0.000001 -0.000000 -0.000001 -9.532581 0.000261 0.000218 88.361215 16.076230 -15.767104 -3.700071 0.000322 0.003946 86.077370 12.476111 -11.566854 -2.950054 0.000312 -0.001875 84.266564 11.524594 -10.425381 -2.946627 -0.000000 -0.000152 -0.000000 -0.000001 0.000001 -9.103692 -0.042783 -1.864937 76.046418 19.160907 -15.000735 -3.379335 0.000299 -0.000877 79.967616 11.484185 -9.655365 -2.889763 0.000332 0.000587 82.679781 7.870606 -6.967324 -2.638814 -0.000014 0.000943 -0.000002 0.000002 0.000002 -8.076743 -0.486422 -3.806123 65.358067 18.299052 -11.695725 -3.600039 0.000232 -0.003630 65.928018 9.099499 -5.672096 -2.100005 0.000279 -0.005584 68.079309 5.331181 -3.453963 -2.115775 -0.000028 -0.003684 -0.000002 0.000001 -0.000004 4.570446 11.014691 -2.160851 -0.000018 0.000010 -0.000021 10.592402 -0.524478 -2.232361 74.160807 -13.259847 10.040520 27.841818 0.000094 -0.000238 100.216053 -69.142995 79.005358 28.328825 -0.000014 0.000019 0.000020 -0.000089 -0.000000 2.466078 -1.576178 2.681904 -27.962952 157.436379 -33.067818 3.217846 -1.871767 1.916382 159.559776 -28.393212 15.214509 2.656100 -1.528658 1.514462 138.583486 -28.118880 48.567228 2.020883 -1.154082 1.115140 0.000006 0.000002 0.000003 9.109379 -0.517880 2.259745 79.039386 -16.702611 13.799005 3.700032 0.000120 -0.000462 74.065055 -14.709745 11.137156 2.850044 0.000148 0.000210 71.387286 -11.884848 8.552015 2.774882 -0.000016 -0.000032 0.000000 0.000002 -0.000001 9.533468 0.000186 -0.000093 78.387691 -14.653939 11.963478 3.700040 0.000150 -0.000382 80.359559 -12.954635 10.950759 2.950063 0.000150 -0.000205 80.887342 -16.605959 14.184332 2.952863 -0.000015 0.000060 0.000001 -0.000001 0.000001 9.104583 -0.042871 -1.865224 77.452849 -13.275692 10.664440 3.150043 0.000190 -0.000107 82.559413 -11.475049 10.083191 2.950034 0.000165 -0.000073 84.432483 -13.818849 12.549675 2.644321 0.000013 0.000057 0.000000 0.000001 0.000002 8.077847 -0.486746 -3.806412 69.077924 -14.085882 10.122934 3.599988 0.000172 0.014577 71.808026 -12.132286 9.168089 2.100058 0.000154 0.007553 75.783797 -12.158273 9.855361 2.125513 -0.000003 0.007515 -0.000001 0.000002 -0.000001 -8.207786 -6.751667 -1.599560 -0.077001 -0.000003 0.000080 -0.000002 -44.370110 0.345938 0.153719 -0.000000 -0.000000 0.000000 -44.423679 -3.043532 -0.076700 0.000000 -0.000002 -0.000006 -8.728667 10.710559 -0.000009 -0.000000 -0.000000 -0.000001 -0.000679 9.278123 0.000000 -0.000000 -0.000000 8.207792 -6.751710 -1.599556 -0.074518 -0.000003 0.000081 -0.000002 -44.370014 0.346960 0.148822 0.000002 0.000000 -0.000001 -44.423664 -3.044403 -0.074314 0.000000 -0.000002 -0.000004 -8.728671 10.710558 0.000007 -0.000000 -0.000000 0.000000 -0.000680 9.278137 -0.000000 0.000000 -0.000001 
0.000006 104.270477 1.554256 0.000010 0.000003 -0.000113 -0.000005 10.181587 0.131522 0.000001 -0.000003 0.000084 -0.000000 9.893967 -1.470711 0.000001 0.000000 -0.000000 -0.000000 9.220802 -1.370642 0.000000 -0.000000 -0.000000 0.000001 16.740433 -2.049030 0.000000 -0.000000 -0.000000 0.000000 9.617859 1.685014 0.000000 0.000000 0.000000 0.000002 22.037384 7.501101 0.000000 -0.000000 0.000000 -4.569968 11.014880 -2.160881 0.000008 0.000001 -0.000038 -10.592873 -0.524780 -2.231878 78.030103 32.191966 -26.318363 -27.841522 0.000010 0.000558 -51.763579 105.593010 65.166992 -28.328817 0.000023 0.000031 -0.000319 -0.000041 0.000005 -2.464433 -1.573731 2.682297 -52.034604 -171.587329 -22.141404 -3.215272 -1.872551 1.924635 150.073080 31.456385 7.141110 -2.654947 -1.527843 1.513056 142.646329 28.288513 -28.474792 -2.018826 -1.151997 1.108055 -0.000006 -0.000003 0.000002 -9.108380 -0.517552 2.260129 102.792230 13.521724 -16.948322 -3.700060 0.000306 0.001542 102.781704 11.244849 -14.027323 -2.850093 0.000372 -0.000212 102.144052 10.368905 -12.817759 -2.772164 -0.000002 -0.000017 -0.000001 -0.000002 0.000000 -9.532575 0.000279 0.000200 85.101152 13.827286 -12.830701 -3.700072 0.000334 0.003944 87.139390 11.263778 -10.628973 -2.950041 0.000337 -0.001823 89.531889 12.212032 -12.106312 -2.946623 0.000002 -0.000153 -0.000003 0.000001 0.000002 -9.103689 -0.042777 -1.864938 76.195514 18.903098 -14.836354 -3.379351 0.000287 -0.000863 79.964761 12.558373 -10.558804 -2.889757 0.000334 0.000580 85.154618 9.308016 -8.598502 -2.638803 -0.000029 0.000944 0.000002 -0.000005 0.000001 -8.076750 -0.486422 -3.806117 64.556209 20.047073 -12.638340 -3.600058 0.000213 -0.003611 64.373242 13.400199 -8.213307 -2.100032 0.000275 -0.005603 67.259707 8.355151 -5.409403 -2.115782 -0.000027 -0.003680 -0.000001 0.000001 -0.000004 4.570446 11.014691 -2.160851 -0.000018 0.000010 -0.000021 10.592394 -0.524481 -2.232345 73.178688 -11.735346 8.725830 27.841831 0.000056 -0.000198 102.886220 -72.180271 84.889033 28.328838 -0.000029 0.000019 0.000019 -0.000089 0.000000 2.466196 -1.576128 2.681851 -8.209989 163.014308 -73.970450 3.217842 -1.871787 1.916396 163.947558 -25.471054 26.748334 2.656121 -1.528654 1.514485 138.911021 -27.704504 57.955596 2.020894 -1.154069 1.115162 -0.000001 0.000002 0.000004 9.109373 -0.517900 2.259745 77.705532 -19.791221 15.987784 3.700034 0.000139 -0.000472 75.111283 -12.429314 9.584933 2.850044 0.000160 0.000204 74.251827 -9.910172 7.509081 2.774920 -0.000046 -0.000020 0.000001 -0.000003 -0.000001 9.533472 0.000179 -0.000095 78.410141 -18.026126 14.737535 3.700011 0.000142 -0.000392 79.823717 -10.495750 8.784665 2.950052 0.000161 -0.000186 79.997593 -11.073075 9.302017 2.952851 -0.000016 0.000066 0.000000 0.000005 -0.000000 9.104589 -0.042872 -1.865207 78.414192 -17.406619 14.238245 3.150036 0.000181 -0.000105 81.273773 -11.111458 9.545512 2.950006 0.000169 -0.000080 82.269226 -10.017345 8.756145 2.644326 0.000031 0.000060 0.000000 0.000001 -0.000000 8.077853 -0.486752 -3.806408 71.500572 -18.851952 14.072733 3.600012 0.000150 0.014581 71.718024 -15.292872 11.467586 2.100039 0.000146 0.007555 74.243268 -11.557542 9.127016 2.125510 -0.000028 0.007520 -0.000002 0.000004 0.000000 -8.207786 -6.751667 -1.599560 -0.077001 -0.000003 0.000080 -0.000002 -44.370110 0.345938 0.153719 -0.000000 -0.000000 0.000000 -44.423679 -3.043532 -0.076700 0.000000 -0.000002 -0.000006 -8.728667 10.710559 -0.000009 -0.000000 -0.000000 -0.000001 -0.000679 9.278123 0.000000 -0.000000 -0.000000 8.207792 -6.751710 -1.599556 -0.074518 -0.000003 0.000081 -0.000002 -44.370014 0.346960 0.148822 0.000002 0.000000 -0.000001 -44.423664 -3.044403 -0.074314 0.000000 -0.000002 -0.000004 -8.728671 10.710558 0.000007 -0.000000 -0.000000 0.000000 -0.000680 9.278137 -0.000000 0.000000 -0.000001 
0.000006 104.270477 1.554256 0.000010 0.000003 -0.000113 -0.000005 10.181587 0.131522 0.000001 -0.000003 0.000084 -0.000000 9.893967 -1.470711 0.000001 0.000000 -0.000000 -0.000000 9.220802 -1.370642 0.000000 -0.000000 -0.000000 0.000001 16.740433 -2.049030 0.000000 -0.000000 -0.000000 0.000000 9.617859 1.685014 0.000000 0.000000 0.000000 0.000002 22.037384 7.501101 0.000000 -0.000000 0.000000 -4.569968 11.014880 -2.160881 0.000008 0.000001 -0.000038 -10.592861 -0.524796 -2.231856 77.793061 39.061135 -31.940861 -27.841518 0.000021 0.000541 -50.351082 104.421824 62.449574 -28.328825 0.000009 0.000024 -0.000324 -0.000042 0.000005 -2.464438 -1.573714 2.682301 -51.414556 -170.883014 -20.108439 -3.215281 -1.872581 1.924631 150.128460 31.614726 8.299248 -2.654962 -1.527843 1.513048 142.572016 28.249432 -29.326862 -2.018826 -1.152012 1.108066 -0.000005 -0.000001 0.000002 -9.108370 -0.517530 2.260139 103.266627 13.521465 -17.090547 -3.700051 0.000330 0.001549 103.865088 10.866149 -13.819128 -2.850071 0.000348 -0.000213 103.109663 9.916778 -12.472249 -2.772165 -0.000016 -0.000014 -0.000000 0.000002 0.000001 -9.532595 0.000263 0.000187 85.630020 14.474586 -13.550957 -3.700074 0.000320 0.003925 87.445956 11.104063 -10.533034 -2.950047 0.000340 -0.001840 89.076827 11.779139 -11.585146 -2.946626 -0.000015 -0.000154 0.000001 -0.000001 0.000001 -9.103691 -0.042779 -1.864933 76.511499 19.507553 -15.401318 -3.379347 0.000301 -0.000865 80.280391 12.652625 -10.697449 -2.889769 0.000325 0.000587 84.798957 8.989471 -8.253949 -2.638802 -0.000001 0.000941 0.000000 -0.000002 0.000000 -8.076757 -0.486422 -3.806111 65.233955 20.242145 -12.930229 -3.600042 0.000221 -0.003613 65.485702 13.288645 -8.319193 -2.100023 0.000271 -0.005599 67.391694 8.064644 -5.229319 -2.115749 -0.000041 -0.003685 -0.000001 -0.000004 -0.000002 4.570446 11.014691 -2.160851 -0.000018 0.000010 -0.000021 10.592435 -0.524468 -2.232388 73.284965 -25.227350 18.900498 27.841827 0.000037 -0.000188 103.866079 -74.833807 88.657262 28.328838 -0.000043 0.000017 0.000025 -0.000089 0.000001 2.466226 -1.576130 2.681863 -8.639098 162.972234 -73.262849 3.217845 -1.871794 1.916401 163.613548 -24.790655 29.634603 2.656096 -1.528683 1.514485 138.780947 -27.738851 58.373208 2.020903 -1.154084 1.115147 0.000001 0.000002 0.000001 9.109388 -0.517885 2.259739 77.604200 -20.004692 16.132688 3.700038 0.000141 -0.000466 75.870069 -13.131962 10.266789 2.850062 0.000171 0.000188 75.484765 -10.461860 8.106241 2.774887 -0.000015 -0.000025 0.000000 0.000001 0.000000 9.533470 0.000179 -0.000091 78.499296 -19.131705 15.671796 3.700059 0.000158 -0.000387 80.128658 -11.700672 9.848193 2.950065 0.000155 -0.000202 80.485317 -11.676834 9.894777 2.952873 -0.000015 0.000064 0.000000 -0.000001 0.000000 9.104601 -0.042878 -1.865221 78.486428 -18.458528 15.122645 3.150043 0.000179 -0.000088 81.664378 -12.032206 10.408978 2.950037 0.000173 -0.000090 82.659830 -10.284591 9.051778 2.644312 0.000031 0.000058 0.000000 -0.000000 -0.000001 8.077854 -0.486750 -3.806401 71.396145 -19.639746 14.623430 3.600007 0.000147 0.014570 72.754075 -16.137823 12.316962 2.100040 0.000170 0.007548 75.353577 -12.037034 9.685126 2.125497 -0.000015 0.007515 -0.000000 -0.000002 -0.000000 -8.207786 -6.751667 -1.599560 -0.077001 -0.000003 0.000080 -0.000002 -44.370110 0.345938 0.153719 -0.000000 -0.000000 0.000000 -44.423679 -3.043532 -0.076700 0.000000 -0.000002 -0.000006 -8.728667 10.710559 -0.000009 -0.000000 -0.000000 -0.000001 -0.000679 9.278123 0.000000 -0.000000 -0.000000 8.207792 -6.751710 -1.599556 -0.074518 -0.000003 0.000081 -0.000002 -44.370014 0.346960 0.148822 0.000002 0.000000 -0.000001 -44.423664 -3.044403 -0.074314 0.000000 -0.000002 -0.000004 -8.728671 10.710558 0.000007 -0.000000 -0.000000 0.000000 -0.000680 9.278137 -0.000000 0.000000 -0.000001 
